<?xml version="1.0" standalone="no"?>
<!DOCTYPE svg PUBLIC "-//W3C//DTD SVG 20010904//EN"
 "http://www.w3.org/TR/2001/REC-SVG-20010904/DTD/svg10.dtd">
<svg version="1.0" xmlns="http://www.w3.org/2000/svg"
 width="1024.000000pt" height="1024.000000pt" viewBox="0 0 1024.000000 1024.000000"
 preserveAspectRatio="xMidYMid meet">
<metadata>
Created by potrace 1.11, written by Peter Selinger 2001-2013
</metadata>
<g transform="translate(0.000000,1024.000000) scale(0.100000,-0.100000)"
fill="#000000" stroke="none">
<path d="M130 7785 l0 -605 535 0 535 0 0 -2050 0 -2050 -535 0 -535 0 0 -605
0 -605 1745 0 1745 0 0 605 0 605 -500 0 -500 0 0 839 c0 473 -5 906 -10 993
-22 313 -80 852 -131 1206 -11 79 -19 146 -16 148 2 2 496 -988 1097 -2201
l1093 -2205 426 0 426 0 1114 2253 c612 1238 1117 2255 1120 2260 4 4 -3 -52
-16 -125 -60 -342 -128 -841 -157 -1153 -29 -303 -36 -542 -36 -1277 l0 -738
-497 -2 -498 -3 -3 -602 -2 -603 1785 0 1785 0 0 605 0 605 -530 0 -530 0 0
2050 0 2050 530 0 530 0 0 605 0 605 -1378 0 -1378 0 -1103 -2240 c-607 -1232
-1107 -2240 -1110 -2240 -3 0 -511 1008 -1129 2240 l-1123 2240 -1375 0 -1374
0 0 -605z"/>
</g>
</svg>
